# xmcd CD database file
#
# Track frame offsets:
#	150
#	21365
#	43227
#	55640
#	76902
#
# Disc length: 1315 seconds
#
# Revision: 0
# Processed by: cddbd v1.5.1PL2 Copyright (c) Steve Scherf et al.
# Submitted via: CDex 1.51
#
DISCID=36052105
DTITLE=ZUNTATA-J.A.M. - 電車で電車でGO！GO！GO！2000 - LOVE特急こまち
DYEAR=1999
DGENRE=Pop
TTITLE0=電車で電車でGO！GO！GO！2000
TTITLE1=LOVE特急こまち
TTITLE2=電車で電車でGO！GO！GO！(Single Edit Ver.)
TTITLE3=電車で電車でGO！GO！GO！2000(オリジナルカラオケ)
TTITLE4=LOVE特急こまち(オリジナルカラオケ)
EXTD=YEAR: 1999
EXTT0=
EXTT1=
EXTT2=
EXTT3=
EXTT4=
PLAYORDER=
